<?xml version="1.0" encoding="utf-8"?>
<!-- Generator: Adobe Illustrator 23.0.1, SVG Export Plug-In . SVG Version: 6.00 Build 0)  -->
<svg version="1.1" id="Layer_1" xmlns="http://www.w3.org/2000/svg" xmlns:xlink="http://www.w3.org/1999/xlink" x="0px" y="0px"
	 viewBox="0 0 512 512" style="enable-background:new 0 0 512 512;" xml:space="preserve">
<style type="text/css">
	.st0{fill:#D8E0E9;}
	.st1{fill:#4F6873;}
	.st2{fill:#37B98F;}
	.st3{fill:#FFFF72;}
	.st4{fill:#F8A282;}
</style>
<g id="ba399912-3c43-4b0a-9812-c6c355d85bd4">
	<path class="st0" d="M246,266.1c-4.8,29.9-30.6,51.9-60.9,51.9c-44,0-80.3,36.4-80.3,80.3v8.9h17.7v-8.9
		c0-34.2,28.4-62.6,62.6-62.6c44-0.1,79.6-35.7,79.5-79.7L246,266.1z"/>
	<path class="st1" d="M406.2,245.6l-160.5,20.6l44.5-61l46.1-29.6L377,201L406.2,245.6z"/>
	<path class="st2" d="M336.3,175.7l-90.6,90.6l20.6-160.5l58.7,25.6L336.3,175.7z"/>
	<path class="st3" d="M407.1,104.8L377.6,152l-41.3,23.6l-69.9-69.9l0.1-1L407.1,104.8z"/>
	<path class="st4" d="M336.3,175.7l69.9,69.9l1-0.1V104.8L336.3,175.7z"/>
</g>
</svg>
