<?xml version="1.0" encoding="utf-8"?>
<!-- Generator: Adobe Illustrator 23.0.1, SVG Export Plug-In . SVG Version: 6.00 Build 0)  -->
<svg version="1.1" xmlns="http://www.w3.org/2000/svg" xmlns:xlink="http://www.w3.org/1999/xlink" x="0px" y="0px"
	 viewBox="0 0 512 512" style="enable-background:new 0 0 512 512;" xml:space="preserve">
<style type="text/css">
	.st0{fill:#46C7F2;}
	.st1{fill:#00A0D1;}
	.st2{fill:#D8E0E9;}
	.st3{fill:#4F6873;}
	.st4{fill:#37B98F;}
	.st5{fill:#FFFF72;}
	.st6{fill:#F8A282;}
	.st7{fill:#DFF3FD;}
</style>
<g id="Layer_1">
	<path class="st0" d="M512,256c0,141.4-114.6,256-256,256S0,397.4,0,256S114.6,0,256,0S512,114.6,512,256z"/>
	<path class="st1" d="M512,256c0-17.6-1.8-34.8-5.2-51.4l-99.6-99.6L286.8,225.5l0,0l-82.1-70.3L76.1,201.5l139.4,117l-73.8,20.2
		l-36.8,68.5l99.7,99.7c16.6,3.4,33.8,5.2,51.4,5.2C397.4,512,512,397.4,512,256z"/>
	<path class="st2" d="M246,266.1c-4.8,29.4-30.1,51.9-60.8,51.9c-44,0-80.3,36.3-80.3,80.3v8.9h17.7v-8.9
		c0-34.2,28.4-62.6,62.6-62.6c44,0,79.5-35.8,79.5-79.7L246,266.1z"/>
	<path class="st3" d="M406.2,245.6l-160.5,20.6l44.5-61l46.1-29.5l40.7,25.4L406.2,245.6z"/>
	<path class="st4" d="M336.3,175.7l-90.5,90.5l20.6-160.5l58.7,25.6L336.3,175.7z"/>
	<path class="st5" d="M407.1,104.9l-29.5,47.2l-41.3,23.6l-69.9-69.9l0.1-0.9H407.1z"/>
	<path class="st6" d="M336.3,175.7l69.9,69.9l0.9-0.1V104.9L336.3,175.7z"/>
</g>
<g id="Layer_2">
	<path class="st7" d="M207.9,201.5c3-6.2,4.6-13.1,4.6-20.4c0-26.1-21.1-47.2-47.2-47.2c-16.8,0-31.5,8.8-39.9,22
		c-4.8-2.3-10.1-3.6-15.7-3.6c-19.9,0-36.1,16.1-36.1,36.1c0,4.6,0.9,9.1,2.5,13.2H207.9z"/>
</g>
</svg>
